<svg width="14" height="14" viewBox="0 0 14 14" fill="none" xmlns="http://www.w3.org/2000/svg">
<path d="M8.45834 12.25V9.75C8.45834 9.19772 8.01062 8.75 7.45834 8.75H6.54167C5.98939 8.75 5.54167 9.19772 5.54167 9.75V12.25" stroke="#33363F" stroke-width="2" stroke-linecap="round" stroke-linejoin="round"/>
<path d="M2.91667 6.41675V8.25008C2.91667 10.1357 2.91667 11.0785 3.50246 11.6643C4.08824 12.2501 5.03105 12.2501 6.91667 12.2501H7.08334C8.96896 12.2501 9.91177 12.2501 10.4976 11.6643C11.0833 11.0785 11.0833 10.1357 11.0833 8.25008V6.41675" stroke="#33363F" stroke-width="2"/>
<path d="M2.53793 3.26493C2.71982 2.53737 2.81077 2.17359 3.08203 1.96179C3.35329 1.75 3.72827 1.75 4.47822 1.75H9.52178C10.2717 1.75 10.6467 1.75 10.918 1.96179C11.1892 2.17359 11.2802 2.53737 11.4621 3.26493L12.0064 5.44214C12.1301 5.93715 11.7476 6.41667 11.2374 6.41667V6.41667C10.4813 6.41667 9.82557 5.87008 9.70128 5.12433V5.12433C9.68692 5.03818 9.56308 5.03818 9.54872 5.12433L9.50116 5.40972C9.40431 5.99079 8.90158 6.41667 8.3125 6.41667V6.41667C7.72342 6.41667 7.22069 5.99079 7.12384 5.40972L7.07628 5.12433C7.06192 5.03818 6.93808 5.03818 6.92372 5.12433L6.87616 5.40972C6.77931 5.99079 6.27658 6.41667 5.6875 6.41667V6.41667C5.09842 6.41667 4.59569 5.99079 4.49884 5.40972L4.45128 5.12433C4.43692 5.03818 4.31308 5.03818 4.29872 5.12433V5.12433C4.17443 5.87008 3.51865 6.41667 2.76261 6.41667V6.41667C2.25237 6.41667 1.86988 5.93715 1.99363 5.44214L2.53793 3.26493Z" stroke="#33363F" stroke-width="2"/>
</svg>
