<svg width="20" height="20" viewBox="0 0 20 20" fill="none" xmlns="http://www.w3.org/2000/svg">
<path fill-rule="evenodd" clip-rule="evenodd" d="M7.37483 2.63563C6.63771 4.2573 6.12886 6.48118 6.02124 9H13.9788C13.8711 6.48118 13.3623 4.2573 12.6252 2.63563C11.7509 0.712166 10.7474 0 10 0C9.25256 0 8.24913 0.712166 7.37483 2.63563ZM6.07531 0.799554C5.88573 1.12233 5.71193 1.4608 5.5541 1.80802C4.6821 3.72642 4.12807 6.24241 4.01959 9H0.0493774C0.416306 5.30433 2.79525 2.20055 6.07531 0.799554ZM13.9247 0.799548C14.1143 1.12233 14.2881 1.4608 14.4459 1.80802C15.3179 3.72642 15.8719 6.24241 15.9804 9H19.9506C19.5837 5.30433 17.2048 2.20055 13.9247 0.799548ZM19.9506 11H15.9804C15.8719 13.7576 15.3179 16.2736 14.4459 18.192C14.2881 18.5392 14.1143 18.8777 13.9247 19.2004C17.2048 17.7995 19.5837 14.6957 19.9506 11ZM9.99562 20C9.99708 20 9.99854 20 10 20C10.7474 20 11.7509 19.2878 12.6252 17.3644C13.3623 15.7427 13.8711 13.5188 13.9788 11H6.02124C6.12886 13.5188 6.63771 15.7427 7.37483 17.3644C8.24742 19.2841 9.24865 19.9972 9.99562 20ZM6.07531 19.2004C2.79524 17.7994 0.416306 14.6957 0.0493774 11H4.01959C4.12807 13.7576 4.6821 16.2736 5.5541 18.192C5.71192 18.5392 5.88573 18.8777 6.07531 19.2004Z" fill="#33363F"/>
</svg>
